<?xml version="1.0" encoding="utf-8"?>
<!-- Generator: Adobe Illustrator 25.0.0, SVG Export Plug-In . SVG Version: 6.00 Build 0)  -->
<svg version="1.1" id="图层_1" xmlns="http://www.w3.org/2000/svg" xmlns:xlink="http://www.w3.org/1999/xlink" x="0px" y="0px"
	 viewBox="0 0 240 240" style="enable-background:new 0 0 240 240;" xml:space="preserve">
<style type="text/css">
	.st0{fill:none;}
	.st1{fill:#41B883;}
	.st2{fill:#FFFFFF;}
</style>
<g>
	<rect id="canvas_background" x="-1" y="-1" class="st0" width="582" height="402"/>
</g>
<g>
	<g id="svg_1" transform="translate(0,240) scale(0.07999999821186066,-0.07999999821186066) ">
		<path id="svg_2" class="st1" d="M2740,2123c-89-10-266-46-381-77c-514-141-949-434-1267-850l-79-104l-468,468
			c-258,258-471,467-473,465s206-353,463-780s469-775,470-773c2,2,39,73,82,158c98,193,182,328,298,477c113,147,359,401,487,504
			c278,223,588,387,933,493l80,24h-55C2800,2127,2759,2125,2740,2123z"/>
		<path id="svg_3" class="st2" d="M693.5,2128.8c-19.2-49.2,10.7-241.5,47-316.3c32.1-59.8,29.9-68.4-21.4-164.6
			c-64.1-117.6-68.4-156-21.4-194.5c49.2-40.6,85.5-8.5,173.1,151.8c42.7,76.9,119.7,200.9,173.1,275.7
			c87.6,126.1,98.3,132.5,113.3,89.8c10.7-25.6,32.1-51.3,49.2-57.7c47-19.2,8.5-100.5-49.2-104.7c-70.5-6.4-91.9-53.4-53.4-113.3
			c19.2-29.9,27.8-72.7,19.2-106.9c-15-70.5,32.1-145.3,79.1-126.1c19.2,6.4,40.6,47,47,89.8c17.1,85.5,44.9,102.6,209.5,126.1
			c106.9,17.1,158.2,55.6,136.8,111.1c-10.7,25.6-36.3,32.1-115.4,25.6c-113.3-6.4-119.7,0-100.5,89.8
			c15,68.4,64.1,89.8,284.3,117.6c59.8,8.5,111.1,21.4,111.1,29.9s-23.5,38.5-51.3,64.1c-47,42.7-66.3,49.2-156,34.2
			c-55.6-8.5-158.2-32.1-230.8-55.6l-128.2-38.5l-47,55.6c-47,53.4-49.2,53.4-102.6,19.2c-29.9-21.4-81.2-74.8-113.3-119.7
			c-32.1-47-66.3-81.2-76.9-79.1c-10.7,4.3-29.9,42.7-42.7,85.5c-12.8,42.7-44.9,94-72.7,113.3
			C710.6,2160.9,704.2,2160.9,693.5,2128.8z"/>
	</g>
</g>
</svg>
