<svg width="240" height="240" xmlns="http://www.w3.org/2000/svg" preserveAspectRatio="xMidYMid meet">
 <metadata>Created by potrace 1.13, written by Peter Selinger 2001-2015</metadata>

 <g>
  <title>background</title>
  <rect x="-1" y="-1" width="242" height="242" id="canvas_background" fill="none"/>
 </g>
 <g>
  <title>Layer 1</title>
  <g transform="translate(0,240) scale(0.07999999821186066,-0.07999999821186066) " fill="#000000" id="svg_1">
   <path d="m2740,2123c-89,-10 -266,-46 -381,-77c-514,-141 -949,-434 -1267,-850l-79,-104l-468,468c-258,258 -471,467 -473,465c-2,-2 206,-353 463,-780c257,-427 469,-775 470,-773c2,2 39,73 82,158c98,193 182,328 298,477c113,147 359,401 487,504c278,223 588,387 933,493l80,24l-55,0c-30,-1 -71,-3 -90,-5z" id="svg_2" fill="#41b883"/>
   <path d="m824,1915c-9,-23 5,-113 22,-148c15,-28 14,-32 -10,-77c-30,-55 -32,-73 -10,-91c23,-19 40,-4 81,71c20,36 56,94 81,129c41,59 46,62 53,42c5,-12 15,-24 23,-27c22,-9 4,-47 -23,-49c-33,-3 -43,-25 -25,-53c9,-14 13,-34 9,-50c-7,-33 15,-68 37,-59c9,3 19,22 22,42c8,40 21,48 98,59c50,8 74,26 64,52c-5,12 -17,15 -54,12c-53,-3 -56,0 -47,42c7,32 30,42 133,55c28,4 52,10 52,14c0,4 -11,18 -24,30c-22,20 -31,23 -73,16c-26,-4 -74,-15 -108,-26l-60,-18l-22,26c-22,25 -23,25 -48,9c-14,-10 -38,-35 -53,-56c-15,-22 -31,-38 -36,-37c-5,2 -14,20 -20,40c-6,20 -21,44 -34,53c-20,14 -23,14 -28,-1z" id="svg_3" fill="#ffffff"/>
  </g>
 </g>
</svg>